<?xml version="1.0" encoding="UTF-8"?>
<svg width="700pt" height="700pt" version="1.1" viewBox="0 0 700 700" xmlns="http://www.w3.org/2000/svg">
 <g>
  <path d="m494.2 509.46h-288.38c-5.1562 0-9.332 4.1758-9.332 9.332s4.1992 9.332 9.332 9.332h288.38c5.1562 0 9.332-4.1758 9.332-9.332 0.003906-5.1562-4.1992-9.332-9.332-9.332z"/>
  <path d="m530.25 462.12h-360.48c-5.1562 0-9.332 4.1758-9.332 9.332s4.1992 9.332 9.332 9.332h360.45c5.1562 0 9.332-4.1758 9.332-9.332s-4.1758-9.332-9.3086-9.332z"/>
  <path d="m575.29 414.77h-450.57c-5.1562 0-9.332 4.1758-9.332 9.332s4.1992 9.332 9.332 9.332h450.59c5.1562 0 9.332-4.1758 9.332-9.332 0.003906-5.1562-4.1953-9.332-9.3516-9.332z"/>
  <path d="m79.66 320.86h72.102c5.1562 0 9.332-4.1758 9.332-9.332s-4.1992-9.332-9.332-9.332h-72.102c-5.1562 0-9.332 4.1758-9.332 9.332s4.1758 9.332 9.332 9.332z"/>
  <path d="m127.94 211.68c-4.7383-1.9141-10.199 0.375-12.133 5.1562-1.9375 4.7852 0.39844 10.219 5.1797 12.156l41.719 16.848c1.1445 0.46484 2.332 0.67578 3.4766 0.67578 3.6875 0 7.1875-2.1914 8.6562-5.832 1.9375-4.7852-0.39844-10.219-5.1797-12.156z"/>
  <path d="m209.88 180.65c2.4023 0 4.7852-0.91016 6.6016-2.7305 3.6406-3.6406 3.6406-9.543 0-13.184l-64.422-64.449c-3.6406-3.6406-9.5664-3.6406-13.207 0s-3.6406 9.543 0 13.184l64.445 64.422c1.8008 1.8477 4.2031 2.7578 6.582 2.7578z"/>
  <path d="m263.92 132.7c1.4922 3.5469 4.9688 5.6914 8.5859 5.6914 1.2148 0 2.4492-0.23438 3.6406-0.74609 4.7383-2.0078 6.9531-7.4883 4.9453-12.227l-17.566-41.461c-2.0078-4.7383-7.5156-6.9531-12.227-4.9453-4.7617 2.0039-6.9531 7.4883-4.9492 12.25z"/>
  <path d="m340.67 41.207v72.078c0 5.1562 4.1992 9.332 9.332 9.332s9.332-4.1758 9.332-9.332v-72.078c0-5.1562-4.1992-9.332-9.332-9.332s-9.332 4.1758-9.332 9.332z"/>
  <path d="m432.44 82.414-16.848 41.812c-1.9141 4.7852 0.39844 10.219 5.1797 12.156 1.1445 0.46484 2.332 0.67578 3.4766 0.67578 3.6875 0 7.2109-2.2148 8.6562-5.832l16.848-41.812c1.9141-4.7852-0.39844-10.219-5.1797-12.156-4.7383-1.9141-10.219 0.37109-12.133 5.1562z"/>
  <path d="m561.26 100.38c-3.6406-3.6406-9.5664-3.6406-13.207 0l-64.422 64.422c-3.6406 3.6406-3.6406 9.543 0 13.184 1.8203 1.8203 4.2227 2.7305 6.6016 2.7305s4.7852-0.91016 6.6016-2.7305l64.422-64.422c3.6406-3.6406 3.6406-9.543 0.003907-13.184z"/>
  <path d="m532.49 243.37c1.2148 0 2.4492-0.23438 3.6406-0.74609l41.441-17.57c4.7383-2.0078 6.9531-7.4883 4.9453-12.227s-7.5117-6.9531-12.227-4.9453l-41.441 17.57c-4.7383 2.0078-6.9531 7.4883-4.9453 12.227 1.5195 3.5664 4.9727 5.6914 8.5859 5.6914z"/>
  <path d="m620.34 302.21h-72.078c-5.1562 0-9.332 4.1758-9.332 9.332s4.1992 9.332 9.332 9.332h72.078c5.1562 0 9.332-4.1758 9.332-9.332s-4.1758-9.332-9.332-9.332z"/>
  <path d="m620.04 371.46c-11.645-0.55859-21.98-5.3672-32.945-15.539-4.0586-3.7812-8.1914-7.582-12.648-10.805-12.156-8.7734-25.809-9.1914-38.453-1.2148-3.6406 2.3086-6.9297 5.2031-10.219 8.0742 3.0586-13.23 4.7852-26.738 4.7852-40.461 0-99.562-81.012-180.55-180.55-180.55-99.539 0-180.55 80.988-180.55 180.55 0 13.906 1.7734 27.559 4.8984 40.949l-3.8281-3.4062c-16.078-14.023-33.367-14.258-49.934-0.72266-2.4258 1.9844-4.7617 4.0117-7.1406 6.0664-2.8945 2.5195-5.7852 5.0391-8.8203 7.4219-7.2578 5.7383-15.398 8.8672-24.965 9.5898-5.1562 0.39844-9.0078 4.875-8.5859 10.012 0.39844 5.1328 5.1328 8.9609 10.012 8.6094 13.207-1.0039 25.035-5.5781 35.141-13.559 3.2422-2.5664 6.3477-5.2734 9.4727-7.9805 2.2383-1.9375 4.457-3.875 6.7188-5.7383 9.5664-7.7695 16.566-7.6992 25.852 0.39844l5.2031 4.668c2.1484 1.9375 4.2695 3.875 6.4414 5.7148 13.137 11.199 28.047 16.824 43.027 16.824 14.047 0 28.117-4.9453 40.832-14.84 2.9883-2.3086 5.8086-4.8086 8.6328-7.2812 2.4492-2.1484 4.9219-4.3164 7.4883-6.3242 8.4688-6.625 15.262-6.5352 23.566 0.30469 2.2852 1.8906 4.457 3.8984 6.6484 5.8555 2.0312 1.8438 4.0586 3.6875 6.1602 5.4375 25.598 21.77 57.867 22.422 84.352 1.6328 2.9648-2.332 5.8086-4.8516 8.6328-7.3281l4.2695-3.7109c11.293-9.6367 17.852-9.4961 29.027 0.39844l3.2422 2.8945c4.2695 3.8281 8.5391 7.6289 13.16 10.941 13.207 9.4492 28.234 13.23 44.777 11.293 17.289-2.0547 30.008-11.387 39.129-19.297l2.8242-2.4727c3.2891-2.918 6.5586-5.8555 10.242-8.1914 6.1602-3.8281 11.691-3.6406 17.547 0.55859 3.875 2.8008 7.375 6.0898 11.316 9.7539 13.766 12.762 28.258 19.344 44.332 20.09 5.3438 0.72266 9.5195-3.7344 9.7539-8.8672 0.3125-5.1289-3.6797-9.4922-8.8359-9.75zm-118.67-2.9375c-3.2188 1.2383-6.4648 2.1914-9.8008 2.5898-11.809 1.4453-22.262-1.168-31.734-7.9336-4.0586-2.918-7.793-6.3008-11.551-9.6602l-3.3594-2.9883c-18.176-16.055-35.188-16.238-53.504-0.58203l-4.457 3.8984c-2.5898 2.2852-5.1797 4.5508-7.8633 6.6719-19.602 15.398-41.695 15.004-60.738-1.1914-1.9375-1.6328-3.8047-3.3359-5.6719-5.0391-2.4258-2.1914-4.8086-4.3633-7.3047-6.418-15.027-12.414-31.688-12.648-46.992-0.60547-2.8242 2.2148-5.5547 4.5977-8.2617 6.9766-2.543 2.2383-5.1094 4.4805-7.793 6.5781-13.695 10.688-29.098 13.301-43.516 8.2383-7.0469-18.434-10.688-37.754-10.688-57.516 0-89.273 72.613-161.89 161.89-161.89s161.89 72.613 161.89 161.89c-0.015625 19.555-3.6094 38.688-10.539 56.98z"/>
  <path d="m356.02 221.62c-0.14062-0.11719-0.32812-0.070313-0.46484-0.16406-1.5391-1.168-3.3828-1.9844-5.4609-1.9844h-0.11719c-2.0781 0.023438-3.8984 0.81641-5.4375 1.9609-0.16406 0.11719-0.375 0.070312-0.51172 0.1875l-28.234 23.59c-3.9414 3.3125-4.457 9.1914-1.168 13.137 3.2891 3.9414 9.1914 4.457 13.137 1.1914l12.902-10.781v42.77c0 5.1562 4.1992 9.332 9.332 9.332 5.1328 0 9.332-4.1758 9.332-9.332l0.003906-42.793 12.879 10.758c1.75 1.4688 3.875 2.1719 5.9961 2.1719 2.6602 0 5.3203-1.1445 7.1641-3.3594 3.3125-3.9414 2.7773-9.8242-1.168-13.137z"/>
 </g>
</svg>
